<mxfile host="app.diagrams.net" modified="2022-10-28T11:52:32.294Z" agent="5.0 (Windows NT 10.0; Win64; x64) AppleWebKit/537.36 (KHTML, like Gecko) Chrome/106.0.0.0 Safari/537.36" etag="i8u9BVIZO1DQrzMoemaH" version="20.5.1" type="github">
  <diagram id="C5RBs43oDa-KdzZeNtuy" name="Page-1">
    <mxGraphModel dx="928" dy="709" grid="1" gridSize="10" guides="1" tooltips="1" connect="1" arrows="1" fold="1" page="1" pageScale="1" pageWidth="827" pageHeight="1169" math="0" shadow="0">
      <root>
        <mxCell id="WIyWlLk6GJQsqaUBKTNV-0" />
        <mxCell id="WIyWlLk6GJQsqaUBKTNV-1" parent="WIyWlLk6GJQsqaUBKTNV-0" />
        <mxCell id="mGFHdvFM3VhJvDRT7SB6-2" style="edgeStyle=orthogonalEdgeStyle;rounded=0;orthogonalLoop=1;jettySize=auto;html=1;exitX=1;exitY=0.5;exitDx=0;exitDy=0;entryX=0;entryY=0.5;entryDx=0;entryDy=0;fontSize=15;" edge="1" parent="WIyWlLk6GJQsqaUBKTNV-1" source="mGFHdvFM3VhJvDRT7SB6-0" target="mGFHdvFM3VhJvDRT7SB6-1">
          <mxGeometry relative="1" as="geometry" />
        </mxCell>
        <mxCell id="mGFHdvFM3VhJvDRT7SB6-6" style="edgeStyle=orthogonalEdgeStyle;rounded=0;orthogonalLoop=1;jettySize=auto;html=1;exitX=1;exitY=0.5;exitDx=0;exitDy=0;entryX=0;entryY=0.5;entryDx=0;entryDy=0;fontSize=15;" edge="1" parent="WIyWlLk6GJQsqaUBKTNV-1" source="mGFHdvFM3VhJvDRT7SB6-0" target="mGFHdvFM3VhJvDRT7SB6-3">
          <mxGeometry relative="1" as="geometry" />
        </mxCell>
        <mxCell id="mGFHdvFM3VhJvDRT7SB6-7" style="edgeStyle=orthogonalEdgeStyle;rounded=0;orthogonalLoop=1;jettySize=auto;html=1;exitX=1;exitY=0.5;exitDx=0;exitDy=0;entryX=0;entryY=0.5;entryDx=0;entryDy=0;fontSize=15;" edge="1" parent="WIyWlLk6GJQsqaUBKTNV-1" source="mGFHdvFM3VhJvDRT7SB6-0" target="mGFHdvFM3VhJvDRT7SB6-4">
          <mxGeometry relative="1" as="geometry" />
        </mxCell>
        <mxCell id="mGFHdvFM3VhJvDRT7SB6-8" style="edgeStyle=orthogonalEdgeStyle;rounded=0;orthogonalLoop=1;jettySize=auto;html=1;exitX=1;exitY=0.5;exitDx=0;exitDy=0;entryX=0;entryY=0.5;entryDx=0;entryDy=0;fontSize=15;" edge="1" parent="WIyWlLk6GJQsqaUBKTNV-1" source="mGFHdvFM3VhJvDRT7SB6-0" target="mGFHdvFM3VhJvDRT7SB6-5">
          <mxGeometry relative="1" as="geometry" />
        </mxCell>
        <mxCell id="mGFHdvFM3VhJvDRT7SB6-0" value="RabbitMQ工作模式" style="rounded=1;whiteSpace=wrap;html=1;fontSize=15;" vertex="1" parent="WIyWlLk6GJQsqaUBKTNV-1">
          <mxGeometry x="30" y="360" width="166" height="70" as="geometry" />
        </mxCell>
        <mxCell id="mGFHdvFM3VhJvDRT7SB6-1" value="简单模式" style="rounded=1;whiteSpace=wrap;html=1;fontSize=15;" vertex="1" parent="WIyWlLk6GJQsqaUBKTNV-1">
          <mxGeometry x="390" y="70" width="120" height="60" as="geometry" />
        </mxCell>
        <mxCell id="mGFHdvFM3VhJvDRT7SB6-3" value="工作队列模式" style="rounded=1;whiteSpace=wrap;html=1;fontSize=15;" vertex="1" parent="WIyWlLk6GJQsqaUBKTNV-1">
          <mxGeometry x="390" y="180" width="120" height="60" as="geometry" />
        </mxCell>
        <mxCell id="mGFHdvFM3VhJvDRT7SB6-4" value="消费者确认模式" style="rounded=1;whiteSpace=wrap;html=1;fontSize=15;" vertex="1" parent="WIyWlLk6GJQsqaUBKTNV-1">
          <mxGeometry x="390" y="300" width="120" height="60" as="geometry" />
        </mxCell>
        <mxCell id="mGFHdvFM3VhJvDRT7SB6-12" style="edgeStyle=orthogonalEdgeStyle;rounded=0;orthogonalLoop=1;jettySize=auto;html=1;exitX=1;exitY=0.5;exitDx=0;exitDy=0;entryX=0;entryY=0.5;entryDx=0;entryDy=0;fontSize=15;" edge="1" parent="WIyWlLk6GJQsqaUBKTNV-1" source="mGFHdvFM3VhJvDRT7SB6-5" target="mGFHdvFM3VhJvDRT7SB6-10">
          <mxGeometry relative="1" as="geometry" />
        </mxCell>
        <mxCell id="mGFHdvFM3VhJvDRT7SB6-13" style="edgeStyle=orthogonalEdgeStyle;rounded=0;orthogonalLoop=1;jettySize=auto;html=1;exitX=1;exitY=0.5;exitDx=0;exitDy=0;entryX=0;entryY=0.5;entryDx=0;entryDy=0;fontSize=15;" edge="1" parent="WIyWlLk6GJQsqaUBKTNV-1" source="mGFHdvFM3VhJvDRT7SB6-5" target="mGFHdvFM3VhJvDRT7SB6-9">
          <mxGeometry relative="1" as="geometry" />
        </mxCell>
        <mxCell id="mGFHdvFM3VhJvDRT7SB6-14" style="edgeStyle=orthogonalEdgeStyle;rounded=0;orthogonalLoop=1;jettySize=auto;html=1;exitX=1;exitY=0.5;exitDx=0;exitDy=0;entryX=0;entryY=0.5;entryDx=0;entryDy=0;fontSize=15;" edge="1" parent="WIyWlLk6GJQsqaUBKTNV-1" source="mGFHdvFM3VhJvDRT7SB6-5" target="mGFHdvFM3VhJvDRT7SB6-11">
          <mxGeometry relative="1" as="geometry" />
        </mxCell>
        <mxCell id="mGFHdvFM3VhJvDRT7SB6-5" value="交换机" style="rounded=1;whiteSpace=wrap;html=1;fontSize=15;" vertex="1" parent="WIyWlLk6GJQsqaUBKTNV-1">
          <mxGeometry x="390" y="410" width="120" height="60" as="geometry" />
        </mxCell>
        <mxCell id="mGFHdvFM3VhJvDRT7SB6-9" value="fanout交换机" style="rounded=1;whiteSpace=wrap;html=1;fontSize=15;" vertex="1" parent="WIyWlLk6GJQsqaUBKTNV-1">
          <mxGeometry x="600" y="307.75" width="120" height="60" as="geometry" />
        </mxCell>
        <mxCell id="mGFHdvFM3VhJvDRT7SB6-10" value="direct交换机" style="rounded=1;whiteSpace=wrap;html=1;fontSize=15;" vertex="1" parent="WIyWlLk6GJQsqaUBKTNV-1">
          <mxGeometry x="600" y="407.75" width="120" height="60" as="geometry" />
        </mxCell>
        <mxCell id="mGFHdvFM3VhJvDRT7SB6-11" value="Topic交换机" style="rounded=1;whiteSpace=wrap;html=1;fontSize=15;" vertex="1" parent="WIyWlLk6GJQsqaUBKTNV-1">
          <mxGeometry x="600" y="512.25" width="120" height="60" as="geometry" />
        </mxCell>
      </root>
    </mxGraphModel>
  </diagram>
</mxfile>
